<?xml version="1.0" encoding="UTF-8"?>
<svg version="1.1" xmlns="http://www.w3.org/2000/svg" width="139" height="148">
<path d="M0 0 C3.3 0 6.6 0 10 0 C10 9.57 10 19.14 10 29 C10.66 29 11.32 29 12 29 C12.80435737 25.62169903 13.17395941 23.52187823 12.0625 20.1875 C10.23400694 14.70202083 10.19243084 9.39548822 12.375 4 C14 1 14 1 16 0 C24.75890132 -0.93082401 24.75890132 -0.93082401 28.5 1.875 C28.995 2.57625 29.49 3.2775 30 4 C30.66 4.66 31.32 5.32 32 6 C33.85625 5.938125 33.85625 5.938125 35.75 5.875 C40.2391839 5.77723193 42.58390353 6.98112405 46 10 C48.4097552 13.53430763 49.11489389 15.84338266 48.75 20 C48.60869216 22.7371852 48.68395464 23.63658867 50.51171875 25.73828125 C51.76343351 26.76148825 53.04977823 27.74418708 54.37109375 28.67578125 C56 30 56 30 57 33 C56.96993823 34.45936241 56.90448043 35.91822893 56.8125 37.375 C56.75472114 40.93417753 56.86003976 41.79231706 58.9375 44.875 C59.618125 45.57625 60.29875 46.2775 61 47 C62.83590619 52.50771856 62.8014899 58.08339372 60.5625 63.4375 C59.7890625 64.7059375 59.7890625 64.7059375 59 66 C57.73454424 68.84459313 57.73454424 68.84459313 58.625 71.125 C59.19828152 75.5201583 58.01440651 79.08796417 56 83 C53.1875 85.5625 53.1875 85.5625 50 87 C48.989375 86.938125 47.97875 86.87625 46.9375 86.8125 C43.991813 86.66459861 43.991813 86.66459861 42.58203125 88.5078125 C41.71026065 89.77072944 40.8735017 91.0587222 40.078125 92.37109375 C39 94 39 94 37 95 C34.73340843 95.27095876 32.46718841 95.44487997 30.19140625 95.62109375 C27.71626355 95.8967824 27.71626355 95.8967824 25 98 C19.88301282 98.57772436 19.88301282 98.57772436 17 98 C14 95.5 14 95.5 12 93 C11.34 94.65 10.68 96.3 10 98 C7.03 98 4.06 98 1 98 C0.57682292 95.75390625 0.15364583 93.5078125 -0.26953125 91.26171875 C-1.08572609 88.73457002 -1.96809782 87.66998576 -4 86 C-5.76033623 84.9751247 -5.76033623 84.9751247 -8 85 C-12.85360697 86.43676638 -12.85360697 86.43676638 -16 90 C-21.90524629 89.43759559 -25.75655866 87.31822272 -29.875 83.0625 C-31.31756817 80.41779168 -31.51986739 78.97067078 -31 76 C-30.360625 75.38125 -29.72125 74.7625 -29.0625 74.125 C-25.5104361 70.4652978 -26.03527673 66.07594035 -25.875 61.1875 C-25.77683876 58.10313791 -25.77683876 58.10313791 -27 56 C-27.07181821 53.28239892 -27.09299506 50.59140612 -27.0625 47.875 C-27.05798828 47.12089844 -27.05347656 46.36679688 -27.04882812 45.58984375 C-27.03703499 43.72652873 -27.01909942 41.86325445 -27 40 C-28.65 40 -30.3 40 -32 40 C-32 39.34 -32 38.68 -32 38 C-31.175 37.2575 -30.35 36.515 -29.5 35.75 C-26.79220479 33.23548665 -26.79220479 33.23548665 -26.375 30.0625 C-27.08416494 26.5875918 -28.5163501 25.19577317 -30.8671875 22.63671875 C-33.11936265 19.38271397 -32.60929898 16.83858356 -32 13 C-29.92938828 9.75604164 -28.3227896 8.38816285 -24.6171875 7.30078125 C-21.94485691 6.86602896 -19.68978746 6.67382976 -17 7 C-14.375 9.4375 -14.375 9.4375 -12 12 C-9.05435473 12.66043237 -7.07835444 12.39720702 -4 12 C-1.77674174 10.37983249 -1.09870466 9.43625951 -0.48828125 6.73828125 C-0.43027344 5.93777344 -0.37226562 5.13726562 -0.3125 4.3125 C-0.209375 2.889375 -0.10625 1.46625 0 0 Z M15 6 C13.74153534 11.79634019 13.90526486 17.2935011 17.125 22.3125 C20.55342618 24.32483711 22.0998583 24.81252952 26 24 C28.97958785 21.93714781 28.97958785 21.93714781 31 19 C31.41986946 16.28836222 31.41986946 16.28836222 31 14 C31.99 14.33 32.98 14.66 34 15 C33.67 17.64 33.34 20.28 33 23 C35.97 22.34 38.94 21.68 42 21 C41.01 23.64 40.02 26.28 39 29 C42.16115776 27.63016497 42.9927092 27.0109362 45 24 C45.42733494 18.70104669 45.51322472 15.26605859 42 11 C39.39503457 9.02381933 38.23411943 8.98088821 34.9375 9.25 C31.83817867 9.86837499 31.83817867 9.86837499 29 12 C29 12.66 29 13.32 29 14 C27.68 14 26.36 14 25 14 C25.350625 13.443125 25.70125 12.88625 26.0625 12.3125 C27.25853552 9.36227905 27.06958635 7.97956198 26 5 C21.46581023 0.75833861 19.2678079 1.75290961 15 6 Z M32 24 C30.7625 24.7425 30.7625 24.7425 29.5 25.5 C24.74668825 27.53713361 21.00246542 26.82056251 16 26 C13.84974756 30.30050489 14.77302822 36.02727382 14.75976562 40.8034668 C14.75005255 42.92601601 14.71902573 45.04759968 14.6875 47.16992188 C14.68097045 48.51822342 14.67571979 49.86653188 14.671875 51.21484375 C14.6625293 52.44323975 14.65318359 53.67163574 14.64355469 54.93725586 C14.72861793 58.00278396 14.72861793 58.00278396 16.52050781 59.92407227 C17.25285645 60.45665649 17.25285645 60.45665649 18 61 C19.485 60.505 19.485 60.505 21 60 C20.79503906 59.39671875 20.59007812 58.7934375 20.37890625 58.171875 C20.10949219 57.37265625 19.84007812 56.5734375 19.5625 55.75 C19.29566406 54.96109375 19.02882813 54.1721875 18.75390625 53.359375 C18.08045292 51.25178012 17.50849405 49.15246027 17 47 C19.90802461 49.21928194 21.95312762 50.92969143 24 54 C24.66 54 25.32 54 26 54 C25.773125 55.258125 25.54625 56.51625 25.3125 57.8125 C24.77993292 61.10419916 24.77993292 61.10419916 26.4375 63.875 C26.953125 64.24625 27.46875 64.6175 28 65 C28 65.66 28 66.32 28 67 C26.125 66.6875 26.125 66.6875 24 66 C23.34 65.01 22.68 64.02 22 63 C18.34683329 64.24976756 17.21934164 64.67098753 15 68 C14.56324048 71.79806077 14.67581667 75.61705099 14.6875 79.4375 C14.67138672 80.48744141 14.65527344 81.53738281 14.63867188 82.61914062 C14.63802734 83.63041016 14.63738281 84.64167969 14.63671875 85.68359375 C14.63373779 86.60712646 14.63075684 87.53065918 14.62768555 88.48217773 C15.06225817 91.42102853 16.05237507 92.80131782 18 95 C21.43230448 94.73606499 21.43230448 94.73606499 25 94 C27.36980013 91.04622502 27.36980013 91.04622502 27 87 C27.99 87 28.98 87 30 87 C30.33 88.65 30.66 90.3 31 92 C33.57531492 91.65198447 35.54832896 91.29035995 37.75 89.875 C39.67028381 86.99457428 39.82025445 84.41516549 40 81 C39.47462432 78.61116531 39.47462432 78.61116531 38 77 C35.94999129 76.19471111 35.94999129 76.19471111 34 76 C34 76.66 34 77.32 34 78 C31.03 78.495 31.03 78.495 28 79 C28.66 78.34 29.32 77.68 30 77 C32.67905902 72.98141147 32.32182663 70.74694284 32 66 C32.99 66 33.98 66 35 66 C35.061875 66.886875 35.12375 67.77375 35.1875 68.6875 C36.19609024 72.79944481 37.97166678 74.11587313 41 77 C42.8125 80.3125 42.8125 80.3125 44 83 C46.78839304 83.50265692 46.78839304 83.50265692 50 83 C53.35298642 79.93857761 54.88937721 78.19472616 55.3125 73.625 C55.1578125 72.325625 55.1578125 72.325625 55 71 C52.07852772 69.80451921 52.07852772 69.80451921 49.1875 70.25 C44.85548525 69.91023414 43.2167935 67.80613901 40 65 C37.27886497 64.13457301 37.27886497 64.13457301 35 64 C35 63.67 35 63.34 35 63 C35.94875 62.731875 36.8975 62.46375 37.875 62.1875 C41.25267273 61.25013412 41.25267273 61.25013412 43 58 C43 57.01 43 56.02 43 55 C43.66 55.33 44.32 55.66 45 56 C44.88140625 56.61488281 44.7628125 57.22976562 44.640625 57.86328125 C44.25489056 60.28183619 43.96964358 62.54980364 44 65 C45.52077886 67.28765772 45.52077886 67.28765772 48 68 C51.83825362 67.87618537 54.33398231 65.59585933 57 63 C59.25963973 58.37800964 59.17365709 54.9654723 58 50 C56.49098583 46.50544086 55.332515 45.21685761 52.125 43.125 C48.79925377 41.92773136 47.31074037 41.92887812 44 43 C43.67 43.99 43.34 44.98 43 46 C42.01 46.33 41.02 46.66 40 47 C40.20625 45.9275 40.4125 44.855 40.625 43.75 C40.9876191 40.12380904 40.98362069 38.91708924 39 36 C39.639375 36.474375 40.27875 36.94875 40.9375 37.4375 C44.92181519 39.47031387 48.58494074 39.7210529 53 40 C54.11987701 36.26707664 53.76115702 34.52231403 52 31 C50.19616789 28.80867576 50.19616789 28.80867576 47.75 28.625 C44.0646365 29.12754957 41.98756156 30.83878525 39 33 C38.278125 33.309375 37.55625 33.61875 36.8125 33.9375 C34.08448668 35.53668022 33.29009445 37.11264576 32 40 C31.47798172 42.99156629 31.19140186 45.97057056 31 49 C30.67 49 30.34 49 30 49 C29.91363281 48.39671875 29.82726562 47.7934375 29.73828125 47.171875 C28.99366835 42.93646217 28.57392902 40.58827725 25.5 37.4375 C23.19166757 35.83384296 23.19166757 35.83384296 21 36 C21 35.01 21 34.02 21 33 C22.29217171 33.47780303 23.58372046 33.95729106 24.875 34.4375 C25.95394531 34.83775391 25.95394531 34.83775391 27.0546875 35.24609375 C29 36 29 36 31 37 C33.20954506 34.92860404 33.20954506 34.92860404 35 32 C35.01888555 28.29320175 35.01888555 28.29320175 34 25 C33.34 24.67 32.68 24.34 32 24 Z M10 53 C11 55 11 55 11 55 Z M11 56 C12 59 12 59 12 59 Z M12 60 C12 61.98 12 63.96 12 66 C12.66 65.67 13.32 65.34 14 65 C13.67 63.35 13.34 61.7 13 60 C12.67 60 12.34 60 12 60 Z " fill="#E85E30" transform="translate(53,18)"/>
<path d="M0 0 C3.3 0 6.6 0 10 0 C10 9.57 10 19.14 10 29 C10.66 29 11.32 29 12 29 C12.80435737 25.62169903 13.17395941 23.52187823 12.0625 20.1875 C10.23400694 14.70202083 10.19243084 9.39548822 12.375 4 C14 1 14 1 16 0 C24.75890132 -0.93082401 24.75890132 -0.93082401 28.5 1.875 C28.995 2.57625 29.49 3.2775 30 4 C30.66 4.66 31.32 5.32 32 6 C33.85625 5.938125 33.85625 5.938125 35.75 5.875 C40.2391839 5.77723193 42.58390353 6.98112405 46 10 C48.4097552 13.53430763 49.11489389 15.84338266 48.75 20 C48.60869216 22.7371852 48.68395464 23.63658867 50.51171875 25.73828125 C51.76343351 26.76148825 53.04977823 27.74418708 54.37109375 28.67578125 C56 30 56 30 57 33 C56.96993823 34.45936241 56.90448043 35.91822893 56.8125 37.375 C56.75472114 40.93417753 56.86003976 41.79231706 58.9375 44.875 C59.9584375 45.926875 59.9584375 45.926875 61 47 C62.83590619 52.50771856 62.8014899 58.08339372 60.5625 63.4375 C59.7890625 64.7059375 59.7890625 64.7059375 59 66 C57.73454424 68.84459313 57.73454424 68.84459313 58.625 71.125 C59.19828152 75.5201583 58.01440651 79.08796417 56 83 C53.1875 85.5625 53.1875 85.5625 50 87 C48.4840625 86.9071875 48.4840625 86.9071875 46.9375 86.8125 C43.991813 86.66459861 43.991813 86.66459861 42.58203125 88.5078125 C41.71026065 89.77072944 40.8735017 91.0587222 40.078125 92.37109375 C39 94 39 94 37 95 C34.73340843 95.27095876 32.46718841 95.44487997 30.19140625 95.62109375 C27.71626355 95.8967824 27.71626355 95.8967824 25 98 C19.88301282 98.57772436 19.88301282 98.57772436 17 98 C14 95.5 14 95.5 12 93 C11.34 94.65 10.68 96.3 10 98 C7.03 98 4.06 98 1 98 C1 95.69 1 93.38 1 91 C1.33 91 1.66 91 2 91 C2 92.98 2 94.96 2 97 C3.94999129 96.80528889 3.94999129 96.80528889 6 96 C7.18330183 94.13355094 7.18330183 94.13355094 8 92 C8.66 91.01 9.32 90.02 10 89 C12.83056478 82.65070561 13.38847777 76.89188338 13 70 C12.34 70 11.68 70 11 70 C10.34 66.04 9.68 62.08 9 58 C8.01 57.67 7.02 57.34 6 57 C4.8125 53.9375 4.8125 53.9375 4 51 C6.68841859 48.74754119 8.64641875 47.11786042 12 46 C12.20970559 41.85906302 12.20970559 41.85906302 11 38 C10.86584528 35.3276379 10.95681459 32.67749512 11 30 C10.01 30 9.02 30 8 30 C6.77401101 20.21094945 7.24593814 10.79120319 8 1 C6.02 1 4.04 1 2 1 C2.33 2.98 2.66 4.96 3 7 C2.34 7 1.68 7 1 7 C0.67 7.66 0.34 8.32 0 9 C0 6.03 0 3.06 0 0 Z M15 6 C13.74153534 11.79634019 13.90526486 17.2935011 17.125 22.3125 C20.55342618 24.32483711 22.0998583 24.81252952 26 24 C28.97958785 21.93714781 28.97958785 21.93714781 31 19 C31.41986946 16.28836222 31.41986946 16.28836222 31 14 C31.99 14.33 32.98 14.66 34 15 C33.67 17.64 33.34 20.28 33 23 C35.97 22.34 38.94 21.68 42 21 C41.01 23.64 40.02 26.28 39 29 C42.16115776 27.63016497 42.9927092 27.0109362 45 24 C45.42733494 18.70104669 45.51322472 15.26605859 42 11 C39.39503457 9.02381933 38.23411943 8.98088821 34.9375 9.25 C31.83817867 9.86837499 31.83817867 9.86837499 29 12 C29 12.66 29 13.32 29 14 C27.68 14 26.36 14 25 14 C25.350625 13.443125 25.70125 12.88625 26.0625 12.3125 C27.25853552 9.36227905 27.06958635 7.97956198 26 5 C21.46581023 0.75833861 19.2678079 1.75290961 15 6 Z M32 24 C30.7625 24.7425 30.7625 24.7425 29.5 25.5 C24.74668825 27.53713361 21.00246542 26.82056251 16 26 C13.84974756 30.30050489 14.77302822 36.02727382 14.75976562 40.8034668 C14.75005255 42.92601601 14.71902573 45.04759968 14.6875 47.16992188 C14.68097045 48.51822342 14.67571979 49.86653188 14.671875 51.21484375 C14.6625293 52.44323975 14.65318359 53.67163574 14.64355469 54.93725586 C14.72861793 58.00278396 14.72861793 58.00278396 16.52050781 59.92407227 C17.25285645 60.45665649 17.25285645 60.45665649 18 61 C19.485 60.505 19.485 60.505 21 60 C20.79503906 59.39671875 20.59007812 58.7934375 20.37890625 58.171875 C20.10949219 57.37265625 19.84007812 56.5734375 19.5625 55.75 C19.29566406 54.96109375 19.02882813 54.1721875 18.75390625 53.359375 C18.08045292 51.25178012 17.50849405 49.15246027 17 47 C19.90802461 49.21928194 21.95312762 50.92969143 24 54 C24.66 54 25.32 54 26 54 C25.773125 55.258125 25.54625 56.51625 25.3125 57.8125 C24.77993292 61.10419916 24.77993292 61.10419916 26.4375 63.875 C26.953125 64.24625 27.46875 64.6175 28 65 C28 65.66 28 66.32 28 67 C26.125 66.6875 26.125 66.6875 24 66 C23.34 65.01 22.68 64.02 22 63 C18.34683329 64.24976756 17.21934164 64.67098753 15 68 C14.56324048 71.79806077 14.67581667 75.61705099 14.6875 79.4375 C14.67138672 80.48744141 14.65527344 81.53738281 14.63867188 82.61914062 C14.63802734 83.63041016 14.63738281 84.64167969 14.63671875 85.68359375 C14.63373779 86.60712646 14.63075684 87.53065918 14.62768555 88.48217773 C15.06225817 91.42102853 16.05237507 92.80131782 18 95 C21.43230448 94.73606499 21.43230448 94.73606499 25 94 C27.36980013 91.04622502 27.36980013 91.04622502 27 87 C27.99 87 28.98 87 30 87 C30.33 88.65 30.66 90.3 31 92 C33.57531492 91.65198447 35.54832896 91.29035995 37.75 89.875 C39.67028381 86.99457428 39.82025445 84.41516549 40 81 C39.47462432 78.61116531 39.47462432 78.61116531 38 77 C35.94999129 76.19471111 35.94999129 76.19471111 34 76 C34 76.66 34 77.32 34 78 C31.03 78.495 31.03 78.495 28 79 C28.66 78.34 29.32 77.68 30 77 C32.67905902 72.98141147 32.32182663 70.74694284 32 66 C32.99 66 33.98 66 35 66 C35.061875 66.886875 35.12375 67.77375 35.1875 68.6875 C36.19609024 72.79944481 37.97166678 74.11587313 41 77 C42.8125 80.3125 42.8125 80.3125 44 83 C46.78839304 83.50265692 46.78839304 83.50265692 50 83 C53.35298642 79.93857761 54.88937721 78.19472616 55.3125 73.625 C55.1578125 72.325625 55.1578125 72.325625 55 71 C52.07852772 69.80451921 52.07852772 69.80451921 49.1875 70.25 C44.85548525 69.91023414 43.2167935 67.80613901 40 65 C37.27886497 64.13457301 37.27886497 64.13457301 35 64 C35 63.67 35 63.34 35 63 C35.94875 62.731875 36.8975 62.46375 37.875 62.1875 C41.25267273 61.25013412 41.25267273 61.25013412 43 58 C43 57.01 43 56.02 43 55 C43.66 55.33 44.32 55.66 45 56 C44.88140625 56.61488281 44.7628125 57.22976562 44.640625 57.86328125 C44.25489056 60.28183619 43.96964358 62.54980364 44 65 C45.52077886 67.28765772 45.52077886 67.28765772 48 68 C51.83825362 67.87618537 54.33398231 65.59585933 57 63 C59.25963973 58.37800964 59.17365709 54.9654723 58 50 C56.49098583 46.50544086 55.332515 45.21685761 52.125 43.125 C48.79925377 41.92773136 47.31074037 41.92887812 44 43 C43.67 43.99 43.34 44.98 43 46 C42.01 46.33 41.02 46.66 40 47 C40.20625 45.9275 40.4125 44.855 40.625 43.75 C40.9876191 40.12380904 40.98362069 38.91708924 39 36 C39.639375 36.474375 40.27875 36.94875 40.9375 37.4375 C44.92181519 39.47031387 48.58494074 39.7210529 53 40 C54.11987701 36.26707664 53.76115702 34.52231403 52 31 C50.19616789 28.80867576 50.19616789 28.80867576 47.75 28.625 C44.0646365 29.12754957 41.98756156 30.83878525 39 33 C38.278125 33.309375 37.55625 33.61875 36.8125 33.9375 C34.08448668 35.53668022 33.29009445 37.11264576 32 40 C31.47798172 42.99156629 31.19140186 45.97057056 31 49 C30.67 49 30.34 49 30 49 C29.91363281 48.39671875 29.82726562 47.7934375 29.73828125 47.171875 C28.99366835 42.93646217 28.57392902 40.58827725 25.5 37.4375 C23.19166757 35.83384296 23.19166757 35.83384296 21 36 C21 35.01 21 34.02 21 33 C22.29217171 33.47780303 23.58372046 33.95729106 24.875 34.4375 C25.95394531 34.83775391 25.95394531 34.83775391 27.0546875 35.24609375 C29 36 29 36 31 37 C33.20954506 34.92860404 33.20954506 34.92860404 35 32 C35.01888555 28.29320175 35.01888555 28.29320175 34 25 C33.34 24.67 32.68 24.34 32 24 Z M10 53 C11 55 11 55 11 55 Z M11 56 C12 59 12 59 12 59 Z M12 60 C12 61.98 12 63.96 12 66 C12.66 65.67 13.32 65.34 14 65 C13.67 63.35 13.34 61.7 13 60 C12.67 60 12.34 60 12 60 Z " fill="#E6A453" transform="translate(53,18)"/>
<path d="M0 0 C3.3 0 6.6 0 10 0 C10 9.57 10 19.14 10 29 C10.66 29 11.32 29 12 29 C12.80435737 25.62169903 13.17395941 23.52187823 12.0625 20.1875 C10.23400694 14.70202083 10.19243084 9.39548822 12.375 4 C14 1 14 1 16 0 C17.54023996 -0.06950541 19.08334988 -0.08452357 20.625 -0.0625 C21.85089844 -0.04896484 21.85089844 -0.04896484 23.1015625 -0.03515625 C24.04128906 -0.01775391 24.04128906 -0.01775391 25 0 C22.59027489 2.40972511 20.04587368 3.50946607 17 5 C15.13414046 6.86585954 15.74033937 9.81236371 15.6875 12.3125 C15.65011719 13.46363281 15.61273438 14.61476563 15.57421875 15.80078125 C16.08083017 19.6073386 17.16137228 20.55329327 20 23 C20 23.66 20 24.32 20 25 C21.65 25 23.3 25 25 25 C25 25.66 25 26.32 25 27 C21.846632 27.70074844 19.27275026 28 16 28 C15.95061372 32.23582327 15.91428737 36.47149465 15.89013672 40.70751953 C15.88007037 42.14895547 15.8664162 43.59037095 15.84912109 45.03173828 C15.82489988 47.10193934 15.81352359 49.17187076 15.8046875 51.2421875 C15.78897705 53.11173096 15.78897705 53.11173096 15.77294922 55.01904297 C15.68347508 58.11771631 15.68347508 58.11771631 18 60 C18.99 60 19.98 60 21 60 C20.71125 59.39671875 20.4225 58.7934375 20.125 58.171875 C19.568125 56.97304687 19.568125 56.97304687 19 55.75 C18.62875 54.96109375 18.2575 54.1721875 17.875 53.359375 C17 51 17 51 17 47 C20.87417633 48.57836813 23.42379515 50.70818269 26 54 C26.2109375 56 26.2109375 56 26.125 58.125 C25.59886457 61.89951463 25.59886457 61.89951463 27.5 64 C27.995 64.33 28.49 64.66 29 65 C28.67 65.99 28.34 66.98 28 68 C23.125 66.25 23.125 66.25 22 64 C18.27385847 65.11854586 18.27385847 65.11854586 16 68 C15.7585656 71.80735968 15.81480463 75.6233371 15.8125 79.4375 C15.80025391 80.50033203 15.78800781 81.56316406 15.77539062 82.65820312 C15.77345703 83.67720703 15.77152344 84.69621094 15.76953125 85.74609375 C15.76336792 87.14879517 15.76336792 87.14879517 15.75708008 88.57983398 C15.83514656 91.26061776 15.83514656 91.26061776 18 94 C21.465 93.505 21.465 93.505 25 93 C25.66 91.02 26.32 89.04 27 87 C27.99 87 28.98 87 30 87 C30.33 89.31 30.66 91.62 31 94 C30.01 94 29.02 94 28 94 C27.67 94.99 27.34 95.98 27 97 C23.78707942 98.60646029 20.4741348 98.62441428 17 98 C14 95.5 14 95.5 12 93 C11.34 94.65 10.68 96.3 10 98 C7.03 98 4.06 98 1 98 C1 95.69 1 93.38 1 91 C1.33 91 1.66 91 2 91 C2 92.98 2 94.96 2 97 C3.94999129 96.80528889 3.94999129 96.80528889 6 96 C7.18330183 94.13355094 7.18330183 94.13355094 8 92 C8.66 91.01 9.32 90.02 10 89 C12.83056478 82.65070561 13.38847777 76.89188338 13 70 C12.34 70 11.68 70 11 70 C10.34 66.04 9.68 62.08 9 58 C8.01 57.67 7.02 57.34 6 57 C4.8125 53.9375 4.8125 53.9375 4 51 C6.68841859 48.74754119 8.64641875 47.11786042 12 46 C12.20970559 41.85906302 12.20970559 41.85906302 11 38 C10.86584528 35.3276379 10.95681459 32.67749512 11 30 C10.01 30 9.02 30 8 30 C6.77401101 20.21094945 7.24593814 10.79120319 8 1 C6.02 1 4.04 1 2 1 C2.33 2.98 2.66 4.96 3 7 C2.34 7 1.68 7 1 7 C0.67 7.66 0.34 8.32 0 9 C0 6.03 0 3.06 0 0 Z M10 53 C11 55 11 55 11 55 Z M11 56 C12 59 12 59 12 59 Z M12 60 C12 61.98 12 63.96 12 66 C12.66 65.67 13.32 65.34 14 65 C13.67 63.35 13.34 61.7 13 60 C12.67 60 12.34 60 12 60 Z " fill="#DE8748" transform="translate(53,18)"/>
<path d="M0 0 C1.33998047 0.06960937 1.33998047 0.06960937 2.70703125 0.140625 C3.60808594 0.17671875 4.50914063 0.2128125 5.4375 0.25 C6.46810547 0.31960937 6.46810547 0.31960937 7.51953125 0.390625 C7.19921875 2.33203125 7.19921875 2.33203125 6.51953125 4.390625 C5.57078125 4.7 4.62203125 5.009375 3.64453125 5.328125 C0.33025081 6.11604799 0.33025081 6.11604799 -1.35546875 9.015625 C-1.91234375 10.19125 -1.91234375 10.19125 -2.48046875 11.390625 C-1.82046875 11.390625 -1.16046875 11.390625 -0.48046875 11.390625 C-0.48046875 12.380625 -0.48046875 13.370625 -0.48046875 14.390625 C0.50953125 14.720625 1.49953125 15.050625 2.51953125 15.390625 C2.18953125 16.050625 1.85953125 16.710625 1.51953125 17.390625 C2.17953125 17.390625 2.83953125 17.390625 3.51953125 17.390625 C3.84953125 16.730625 4.17953125 16.070625 4.51953125 15.390625 C4.64453125 20.140625 4.64453125 20.140625 3.51953125 22.390625 C4.17953125 23.050625 4.83953125 23.710625 5.51953125 24.390625 C5.22194706 26.7287865 4.88713856 29.06244536 4.51953125 31.390625 C4.84953125 32.380625 5.17953125 33.370625 5.51953125 34.390625 C4.85953125 34.390625 4.19953125 34.390625 3.51953125 34.390625 C4.11771052 39.71033071 4.11771052 39.71033071 5.14453125 44.953125 C5.64758101 48.22294842 5.00204039 51.13368832 4.51953125 54.390625 C4.84953125 55.380625 5.17953125 56.370625 5.51953125 57.390625 C4.9609375 59.65234375 4.9609375 59.65234375 4.08203125 62.078125 C3.79457031 62.88636719 3.50710937 63.69460937 3.2109375 64.52734375 C2.98277344 65.14222656 2.75460938 65.75710937 2.51953125 66.390625 C1.19953125 66.390625 -0.12046875 66.390625 -1.48046875 66.390625 C-1.81046875 69.030625 -2.14046875 71.670625 -2.48046875 74.390625 C-4.48046875 72.390625 -4.48046875 72.390625 -4.85546875 70.015625 C-4.48046875 67.390625 -4.48046875 67.390625 -2.54296875 65.515625 C1.00909515 61.8559228 0.48425452 57.46656535 0.64453125 52.578125 C0.74269249 49.49376291 0.74269249 49.49376291 -0.48046875 47.390625 C-0.55228696 44.67302392 -0.57346381 41.98203112 -0.54296875 39.265625 C-0.53845703 38.51152344 -0.53394531 37.75742188 -0.52929688 36.98046875 C-0.51750374 35.11715373 -0.49956817 33.25387945 -0.48046875 31.390625 C-2.13046875 31.390625 -3.78046875 31.390625 -5.48046875 31.390625 C-5.48046875 30.730625 -5.48046875 30.070625 -5.48046875 29.390625 C-4.65546875 28.648125 -3.83046875 27.905625 -2.98046875 27.140625 C-0.27267354 24.62611165 -0.27267354 24.62611165 0.14453125 21.453125 C-0.56483331 17.97723868 -1.99247501 16.58220916 -4.35546875 14.03125 C-6.53083045 10.85884752 -5.96120673 8.11634433 -5.48046875 4.390625 C-3.92453301 1.52045227 -3.2819425 0.51684134 0 0 Z " fill="#DD4B38" transform="translate(26.48046875,26.609375)"/>
<path d="M0 0 C3.3 0 6.6 0 10 0 C10 9.57 10 19.14 10 29 C11.32 29 12.64 29 14 29 C14 38.9 14 48.8 14 59 C13.505 57.515 13.505 57.515 13 56 C12.34 56 11.68 56 11 56 C11 59.3 11 62.6 11 66 C10.67 66 10.34 66 10 66 C9.67 63.36 9.34 60.72 9 58 C8.01 57.67 7.02 57.34 6 57 C4.8125 53.9375 4.8125 53.9375 4 51 C6.68841859 48.74754119 8.64641875 47.11786042 12 46 C12.20970559 41.85906302 12.20970559 41.85906302 11 38 C10.86584528 35.3276379 10.95681459 32.67749512 11 30 C10.01 30 9.02 30 8 30 C6.77401101 20.21094945 7.24593814 10.79120319 8 1 C6.02 1 4.04 1 2 1 C2.33 2.98 2.66 4.96 3 7 C2.34 7 1.68 7 1 7 C0.67 7.66 0.34 8.32 0 9 C0 6.03 0 3.06 0 0 Z M10 53 C11 55 11 55 11 55 Z " fill="#EA7433" transform="translate(53,18)"/>
<path d="M0 0 C0.99 0.33 1.98 0.66 3 1 C3.28875 1.9075 3.5775 2.815 3.875 3.75 C4.77994583 7.14977048 4.77994583 7.14977048 7.5 9.4375 C10.61076422 12.62603332 11.07578688 14.71501192 12 19 C13.32 19.33 14.64 19.66 16 20 C15.67 20.66 15.34 21.32 15 22 C14.01 22 13.02 22 12 22 C10.60901377 23.50523589 10.60901377 23.50523589 9.4375 25.4375 C7.18834081 28.9058296 7.18834081 28.9058296 5 30 C3.45976004 30.06950541 1.91665012 30.08452357 0.375 30.0625 C-0.85089844 30.04896484 -0.85089844 30.04896484 -2.1015625 30.03515625 C-2.72804688 30.02355469 -3.35453125 30.01195313 -4 30 C-3.01 29.67 -2.02 29.34 -1 29 C-1 28.34 -1 27.68 -1 27 C1.31 26.34 3.62 25.68 6 25 C6.19658808 23.58456585 6.38187546 22.16755969 6.5625 20.75 C6.66691406 19.96109375 6.77132812 19.1721875 6.87890625 18.359375 C7.00027349 15.99467126 6.69633257 14.2488963 6 12 C4.68 11.67 3.36 11.34 2 11 C2 11.66 2 12.32 2 13 C0.02 13.33 -1.96 13.66 -4 14 C-2.125 10.125 -2.125 10.125 -1 9 C-1 7.68 -1 6.36 -1 5 C-1 1 -1 1 0 0 Z " fill="#E59E4D" transform="translate(85,83)"/>
<path d="M0 0 C0.33 0 0.66 0 1 0 C1 3.3 1 6.6 1 10 C0.01 10.33 -0.98 10.66 -2 11 C-1.34 11.33 -0.68 11.66 0 12 C0.33 17.61 0.66 23.22 1 29 C1.66 29 2.32 29 3 29 C3.144375 30.093125 3.28875 31.18625 3.4375 32.3125 C3.88288104 35.93122987 3.88288104 35.93122987 5 39 C4.44140625 41.26171875 4.44140625 41.26171875 3.5625 43.6875 C3.27503906 44.49574219 2.98757812 45.30398437 2.69140625 46.13671875 C2.46324219 46.75160156 2.23507813 47.36648437 2 48 C0.68 48 -0.64 48 -2 48 C-2.33 50.64 -2.66 53.28 -3 56 C-5 54 -5 54 -5.375 51.625 C-5 49 -5 49 -3.0625 47.125 C0.4895639 43.4652978 -0.03527673 39.07594035 0.125 34.1875 C0.22316124 31.10313791 0.22316124 31.10313791 -1 29 C-1.07181821 26.28239892 -1.09299506 23.59140612 -1.0625 20.875 C-1.05798828 20.12089844 -1.05347656 19.36679688 -1.04882812 18.58984375 C-1.03703499 16.72652873 -1.01909942 14.86325445 -1 13 C-2.65 13 -4.3 13 -6 13 C-6 12.34 -6 11.68 -6 11 C-5.195625 10.2575 -4.39125 9.515 -3.5625 8.75 C-0.71287976 5.69187096 -0.28527911 4.08900062 0 0 Z " fill="#D84D37" transform="translate(27,45)"/>
<path d="M0 0 C3 1 3 1 4.6875 3.5625 C6.66652747 6.17067976 6.66652747 6.17067976 8.9296875 6.22265625 C9.63351563 6.19042969 10.33734375 6.15820312 11.0625 6.125 C15 6 15 6 17 7.4375 C18 9 18 9 18 10 C17.39671875 9.97679687 16.7934375 9.95359375 16.171875 9.9296875 C15.37265625 9.91164063 14.5734375 9.89359375 13.75 9.875 C12.56664063 9.84019531 12.56664063 9.84019531 11.359375 9.8046875 C8.75385683 10.02037609 7.20013023 10.6078822 5 12 C4.67 12.66 4.34 13.32 4 14 C2.68 14 1.36 14 0 14 C0.2475 12.7625 0.495 11.525 0.75 10.25 C1.09572221 8.07896977 1.09572221 8.07896977 1 6 C-0.77154652 3.47409152 -0.77154652 3.47409152 -3 2 C-2.01 1.34 -1.02 0.68 0 0 Z " fill="#E2974A" transform="translate(78,18)"/>
<path d="M0 0 C0.99 0.33 1.98 0.66 3 1 C2.67 3.97 2.34 6.94 2 10 C3.7325 11.2065625 3.7325 11.2065625 5.5 12.4375 C6.68653894 13.26383962 7.8588092 14.11208369 9 15 C9 15.33 9 15.66 9 16 C6.375 16.3125 6.375 16.3125 3 16 C0.95880212 14.38405168 -1.04072937 12.7143618 -3 11 C-6.21265916 9.67649342 -6.21265916 9.67649342 -9 9 C-8.67 8.34 -8.34 7.68 -8 7 C-6.5459375 6.5978125 -6.5459375 6.5978125 -5.0625 6.1875 C-1.79353796 5.30639054 -1.79353796 5.30639054 -0.625 2.375 C-0.41875 1.59125 -0.2125 0.8075 0 0 Z " fill="#E5A458" transform="translate(96,73)"/>
<path d="M0 0 C3.3 0 6.6 0 10 0 C10.33 9.9 10.66 19.8 11 30 C10.01 30 9.02 30 8 30 C6.77401101 20.21094945 7.24593814 10.79120319 8 1 C6.02 1 4.04 1 2 1 C2.33 2.98 2.66 4.96 3 7 C2.34 7 1.68 7 1 7 C0.67 7.66 0.34 8.32 0 9 C0 6.03 0 3.06 0 0 Z " fill="#D87C51" transform="translate(53,18)"/>
<path d="M0 0 C0.99 0.33 1.98 0.66 3 1 C3.309375 1.94875 3.61875 2.8975 3.9375 3.875 C5.09295509 7.27339731 5.9902396 8.19414376 9 10 C8.67 11.98 8.34 13.96 8 16 C7.7525 15.360625 7.505 14.72125 7.25 14.0625 C6.18437567 11.81258459 6.18437567 11.81258459 3.875 11.25 C3.25625 11.1675 2.6375 11.085 2 11 C2 11.66 2 12.32 2 13 C0.02 13.33 -1.96 13.66 -4 14 C-2.125 10.125 -2.125 10.125 -1 9 C-1 7.68 -1 6.36 -1 5 C-1 1 -1 1 0 0 Z " fill="#DF9752" transform="translate(85,83)"/>
<path d="M0 0 C0.66 0 1.32 0 2 0 C2 0.66 2 1.32 2 2 C1.34 2 0.68 2 0 2 C0 1.34 0 0.68 0 0 Z M-1 2 C0.625 3.5625 0.625 3.5625 2 6 C1.1875 9.75 1.1875 9.75 0 13 C0.66 13 1.32 13 2 13 C2 13.66 2 14.32 2 15 C2.99 15 3.98 15 5 15 C5.33 15.99 5.66 16.98 6 18 C2.21213403 17.4739075 -0.17152224 16.61896089 -3 14 C-3 13.34 -3 12.68 -3 12 C-3.99 12.33 -4.98 12.66 -6 13 C-6.125 7.25 -6.125 7.25 -5 5 C-3.68 5 -2.36 5 -1 5 C-1 4.01 -1 3.02 -1 2 Z " fill="#E5482F" transform="translate(30,88)"/>
<path d="M0 0 C0.66 0 1.32 0 2 0 C2.598125 0.61875 3.19625 1.2375 3.8125 1.875 C6.12505706 4.121484 7.97199019 4.9906634 11 6 C11 4.68 11 3.36 11 2 C15.81065519 1.03786896 20.12322587 0.52805412 25 1 C27.5625 3.3125 27.5625 3.3125 29 6 C28.67 6.99 28.34 7.98 28 9 C27.4225 8.195625 26.845 7.39125 26.25 6.5625 C24.26999902 4.01530385 24.26999902 4.01530385 22.1875 3 C18.68314874 3 16.07726522 4.43233658 13 6 C12.67 6.66 12.34 7.32 12 8 C7.02833396 7.526508 3.89003364 6.14907485 0 3 C0 2.01 0 1.02 0 0 Z " fill="#CF5F45" transform="translate(25,100)"/>
<path d="M0 0 C-0.125 1.875 -0.125 1.875 -1 4 C-1.94875 4.309375 -2.8975 4.61875 -3.875 4.9375 C-7.18928044 5.72542299 -7.18928044 5.72542299 -8.875 8.625 C-9.431875 9.800625 -9.431875 9.800625 -10 11 C-9.34 11 -8.68 11 -8 11 C-8.33 11.99 -8.66 12.98 -9 14 C-11 12 -11 12 -11.3125 8.125 C-11.22294392 5.53258727 -10.97555319 3.93888298 -10 1.5 C-6.79687946 -0.9023404 -3.92653359 -0.25747761 0 0 Z " fill="#E4472F" transform="translate(34,27)"/>
<path d="M0 0 C3.875 0.875 3.875 0.875 5 2 C6.34747084 2.23075082 7.70377565 2.41153063 9.0625 2.5625 C10.361875 2.706875 11.66125 2.85125 13 3 C11.34412827 4.90425248 10.44942615 5.90466718 7.9375 6.4375 C5.78826429 6.82450832 5.78826429 6.82450832 4.75 9.0625 C4.5025 9.701875 4.255 10.34125 4 11 C3.01 11 2.02 11 1 11 C1.020625 9.9275 1.04125 8.855 1.0625 7.75 C1.0142016 4.85209576 0.86844115 2.71387859 0 0 Z " fill="#E89C3E" transform="translate(92,54)"/>
<path d="M0 0 C0.33 0.99 0.66 1.98 1 3 C1.66 3.33 2.32 3.66 3 4 C2.99214478 5.33961792 2.99214478 5.33961792 2.98413086 6.70629883 C2.96708214 10.02173508 2.95454653 13.3371247 2.94506836 16.65258789 C2.94004158 18.08716568 2.93321921 19.52173836 2.92456055 20.95629883 C2.91242248 23.01905582 2.90675514 25.08174504 2.90234375 27.14453125 C2.89710693 28.38565674 2.89187012 29.62678223 2.88647461 30.90551758 C2.85611917 34.03708218 2.85611917 34.03708218 4 37 C2.68 37 1.36 37 0 37 C-0.495 39.475 -0.495 39.475 -1 42 C-1.33 42 -1.66 42 -2 42 C-2.25 35.375 -2.25 35.375 0 32 C0.36887189 29.09355756 0.36887189 29.09355756 0.4140625 25.80078125 C0.45273438 24.59228516 0.49140625 23.38378906 0.53125 22.13867188 C0.5621875 20.87603516 0.593125 19.61339844 0.625 18.3125 C0.66367188 17.03826172 0.70234375 15.76402344 0.7421875 14.45117188 C0.83657686 11.30092708 0.9221583 8.15069009 1 5 C0.34 5 -0.32 5 -1 5 C-0.67 3.35 -0.34 1.7 0 0 Z " fill="#DA8554" transform="translate(66,42)"/>
<path d="M0 0 C0.33 0 0.66 0 1 0 C1 3.63 1 7.26 1 11 C0.01 11.495 0.01 11.495 -1 12 C-1.72693904 13.97888961 -2.39816251 15.97954558 -3 18 C-5.97 18 -8.94 18 -12 18 C-12 15.69 -12 13.38 -12 11 C-11.67 11 -11.34 11 -11 11 C-11 12.98 -11 14.96 -11 17 C-9.05000871 16.80528889 -9.05000871 16.80528889 -7 16 C-5.81669817 14.13355094 -5.81669817 14.13355094 -5 12 C-4.34 11.01 -3.68 10.02 -3 9 C-2.4172881 7.45233858 -1.87735813 5.88807778 -1.375 4.3125 C-1.11460938 3.50425781 -0.85421875 2.69601563 -0.5859375 1.86328125 C-0.39257812 1.24839844 -0.19921875 0.63351563 0 0 Z " fill="#DE7646" transform="translate(66,98)"/>
<path d="M0 0 C0.99 0.33 1.98 0.66 3 1 C3 4.3 3 7.6 3 11 C2.67 10.01 2.34 9.02 2 8 C1.34 8 0.68 8 0 8 C0 11.3 0 14.6 0 18 C-0.33 18 -0.66 18 -1 18 C-1.2165625 16.1746875 -1.2165625 16.1746875 -1.4375 14.3125 C-1.82780953 11.17329623 -2.32351856 8.0924866 -3 5 C-2.34 5 -1.68 5 -1 5 C-0.67 3.35 -0.34 1.7 0 0 Z M-1 5 C0 7 0 7 0 7 Z " fill="#E6773D" transform="translate(64,66)"/>
<path d="M0 0 C3.87583261 1.57904291 6.46498418 3.66826492 9 7 C9.1285806 9.88770589 8.63051833 12.13841682 8 15 C7.67 15 7.34 15 7 15 C7 12.69 7 10.38 7 8 C6.01 8 5.02 8 4 8 C3.67 8.99 3.34 9.98 3 11 C0 4.5 0 4.5 0 0 Z " fill="#DD8852" transform="translate(70,65)"/>
<path d="M0 0 C0.33 0 0.66 0 1 0 C1 3.3 1 6.6 1 10 C0.01 10.33 -0.98 10.66 -2 11 C-1.34 11.33 -0.68 11.66 0 12 C0.41064453 13.85766602 0.41064453 13.85766602 0.6328125 16.25390625 C0.71660156 17.10791016 0.80039062 17.96191406 0.88671875 18.84179688 C0.96535156 19.73962891 1.04398438 20.63746094 1.125 21.5625 C1.21136719 22.46419922 1.29773438 23.36589844 1.38671875 24.29492188 C1.59951659 26.52929918 1.80354467 28.76413615 2 31 C1.01 30.34 0.02 29.68 -1 29 C-1.22107787 26.2114711 -1.28107535 23.65346819 -1.1875 20.875 C-1.17396484 20.12089844 -1.16042969 19.36679688 -1.14648438 18.58984375 C-1.11109985 16.72625873 -1.05729167 14.86304022 -1 13 C-2.65 13 -4.3 13 -6 13 C-6 12.34 -6 11.68 -6 11 C-5.195625 10.2575 -4.39125 9.515 -3.5625 8.75 C-0.71287976 5.69187096 -0.28527911 4.08900062 0 0 Z " fill="#D05D50" transform="translate(27,45)"/>
<path d="M0 0 C3.01574271 1.03991128 3.97991051 1.96914829 5.75 4.6875 C7.13220349 8.35033925 7.23295137 11.11747717 7 15 C6.67 15 6.34 15 6 15 C6 13.02 6 11.04 6 9 C5.34 9 4.68 9 4 9 C4 11.31 4 13.62 4 16 C3.67 16 3.34 16 3 16 C2.83564453 14.98679687 2.83564453 14.98679687 2.66796875 13.953125 C2.50941406 13.06109375 2.35085937 12.1690625 2.1875 11.25 C1.96126953 9.92742188 1.96126953 9.92742188 1.73046875 8.578125 C0.94585752 5.8089089 -0.14595359 4.1740599 -2 2 C-1.34 1.34 -0.68 0.68 0 0 Z " fill="#E1A556" transform="translate(95,26)"/>
<path d="M0 0 C-0.43197635 4.7517398 -1.32769295 6.92000054 -5 10 C-6 9 -6 9 -6.0625 6.4375 C-6.041875 5.633125 -6.02125 4.82875 -6 4 C-6.66 3.67 -7.32 3.34 -8 3 C-7 1 -7 1 -5.125 0.375 C-3 0 -3 0 0 0 Z " fill="#F29734" transform="translate(95,39)"/>
<path d="M0 0 C0.66 0 1.32 0 2 0 C2.33 1.65 2.66 3.3 3 5 C4.98 4.67 6.96 4.34 9 4 C9 4.99 9 5.98 9 7 C7.88625 7.45375 6.7725 7.9075 5.625 8.375 C2.03800992 9.72465986 2.03800992 9.72465986 0 12 C0 11.34 0 10.68 0 10 C-0.66 9.67 -1.32 9.34 -2 9 C-1.34 8.34 -0.68 7.68 0 7 C0.16677282 3.41656024 0.16677282 3.41656024 0 0 Z " fill="#E69946" transform="translate(87,43)"/>
<path d="M0 0 C0.33 0 0.66 0 1 0 C1.02505615 0.66531738 1.0501123 1.33063477 1.07592773 2.01611328 C1.19251136 5.05257487 1.31495351 8.08877346 1.4375 11.125 C1.47681641 12.17171875 1.51613281 13.2184375 1.55664062 14.296875 C1.76131096 19.27193842 1.99276207 24.10770149 3 29 C1.0625 28.25 1.0625 28.25 -1 27 C-1.75 24.875 -1.75 24.875 -2 23 C-1.34 23 -0.68 23 0 23 C0 15.41 0 7.82 0 0 Z " fill="#D78252" transform="translate(67,86)"/>
<path d="M0 0 C0.99 0 1.98 0 3 0 C2.33333333 2.66666667 1.66666667 5.33333333 1 8 C-1.64 7.67 -4.28 7.34 -7 7 C-4.66666667 4.66666667 -2.33333333 2.33333333 0 0 Z " fill="#EEAB48" transform="translate(109,81)"/>
<path d="M0 0 C1.98 0.99 3.96 1.98 6 3 C6 3.66 6 4.32 6 5 C7.65 5 9.3 5 11 5 C11 5.66 11 6.32 11 7 C7.01803543 8.05404945 4.01804691 7.84098656 0 7 C0 4.69 0 2.38 0 0 Z " fill="#E6823F" transform="translate(67,38)"/>
<path d="M0 0 C1.65 0.33 3.3 0.66 5 1 C4.34 2.98 3.68 4.96 3 7 C2.34 7 1.68 7 1 7 C1 9.31 1 11.62 1 14 C0.67 14 0.34 14 0 14 C0 12.35 0 10.7 0 9 C-0.66 9 -1.32 9 -2 9 C-2 7.68 -2 6.36 -2 5 C-1.34 4.67 -0.68 4.34 0 4 C0 2.68 0 1.36 0 0 Z " fill="#E0853E" transform="translate(66,79)"/>
<path d="M0 0 C0.66 0 1.32 0 2 0 C2.31416607 5.23610116 1.77647622 8.51492303 -1 13 C-1.99 13.495 -1.99 13.495 -3 14 C-3 13.34 -3 12.68 -3 12 C-3.66 11.67 -4.32 11.34 -5 11 C-3.625 9 -3.625 9 -2 7 C-1.34 7 -0.68 7 0 7 C0 4.69 0 2.38 0 0 Z " fill="#EB9F41" transform="translate(99,35)"/>
<path d="M0 0 C0.66 0 1.32 0 2 0 C2.28571429 7.42857143 2.28571429 7.42857143 0 11 C-1.65 10.67 -3.3 10.34 -5 10 C-5 9.34 -5 8.68 -5 8 C-3.68 7.67 -2.36 7.34 -1 7 C-0.67 4.69 -0.34 2.38 0 0 Z " fill="#EFA943" transform="translate(107,51)"/>
<path d="M0 0 C0.33 0.66 0.66 1.32 1 2 C1.99 2.33 2.98 2.66 4 3 C0.14243493 5.15305957 -2.55129785 6.39253254 -7 6 C-5.68 5.67 -4.36 5.34 -3 5 C-3 4.34 -3 3.68 -3 3 C-4.65 3 -6.3 3 -8 3 C-8 2.67 -8 2.34 -8 2 C-5.36 1.34 -2.72 0.68 0 0 Z " fill="#DD8F54" transform="translate(81,40)"/>
<path d="M0 0 C0.99 0 1.98 0 3 0 C3 3.3 3 6.6 3 10 C2.01 9.67 1.02 9.34 0 9 C0 6.03 0 3.06 0 0 Z " fill="#E3773B" transform="translate(64,26)"/>
<path d="M0 0 C0.33 0 0.66 0 1 0 C1 3.63 1 7.26 1 11 C0.01 11.33 -0.98 11.66 -2 12 C-3.15957207 8.52128379 -2.77456651 7.65780355 -1.5625 4.3125 C-1.13130859 3.10013672 -1.13130859 3.10013672 -0.69140625 1.86328125 C-0.46324219 1.24839844 -0.23507813 0.63351563 0 0 Z " fill="#ED7436" transform="translate(66,98)"/>
<path d="M0 0 C0.33 0 0.66 0 1 0 C1.16820551 1.93736701 1.33451095 3.87489906 1.5 5.8125 C1.5928125 6.89144531 1.685625 7.97039063 1.78125 9.08203125 C2 12 2 12 2 15 C1.67 14.67 1.34 14.34 1 14 C0.34 14.66 -0.32 15.32 -1 16 C-1.33 14.35 -1.66 12.7 -2 11 C-1.34 11 -0.68 11 0 11 C0 7.37 0 3.74 0 0 Z " fill="#DD8757" transform="translate(67,25)"/>
<path d="M0 0 C2.20914 3.31371 2.22481553 4.3446021 2.125 8.1875 C2.10695313 9.08855469 2.08890625 9.98960938 2.0703125 10.91796875 C2.03550781 11.94857422 2.03550781 11.94857422 2 13 C1.67 13 1.34 13 1 13 C0.87625 12.030625 0.7525 11.06125 0.625 10.0625 C0.41875 9.051875 0.2125 8.04125 0 7 C-0.66 6.67 -1.32 6.34 -2 6 C-2 5.01 -2 4.02 -2 3 C-1.34 3 -0.68 3 0 3 C0 2.01 0 1.02 0 0 Z " fill="#E9B65E" transform="translate(113,65)"/>
<path d="M0 0 C0 3.92896395 -1.00299863 7.19893228 -2 11 C-4 9 -4 9 -4.375 6.625 C-3.89262388 3.24836718 -2.55541504 2.15613144 0 0 Z " fill="#CC5149" transform="translate(26,90)"/>
<path d="M0 0 C3.875 0.875 3.875 0.875 5 2 C6.34747084 2.23075082 7.70377565 2.41153063 9.0625 2.5625 C10.361875 2.706875 11.66125 2.85125 13 3 C13 3.33 13 3.66 13 4 C11.58344207 4.0272415 10.16672955 4.04650467 8.75 4.0625 C7.56664063 4.07990234 7.56664063 4.07990234 6.359375 4.09765625 C4.09308998 4.00385306 2.1711105 3.63241063 0 3 C0 2.01 0 1.02 0 0 Z " fill="#E6AB68" transform="translate(92,54)"/>
<path d="M0 0 C0.66 0 1.32 0 2 0 C2.24954005 1.43410368 2.47392642 2.87260072 2.6875 4.3125 C2.81511719 5.11300781 2.94273438 5.91351563 3.07421875 6.73828125 C3 9 3 9 1.51953125 10.79296875 C1.01808594 11.19128906 0.51664062 11.58960938 0 12 C0 11.34 0 10.68 0 10 C-0.66 9.67 -1.32 9.34 -2 9 C-1.34 8.34 -0.68 7.68 0 7 C0.16677282 3.41656024 0.16677282 3.41656024 0 0 Z " fill="#E49D64" transform="translate(87,43)"/>
<path d="M0 0 C-0.3125 2.875 -0.3125 2.875 -1 6 C-1.99 6.66 -2.98 7.32 -4 8 C-4 7.01 -4 6.02 -4 5 C-3.34 5 -2.68 5 -2 5 C-2 4.01 -2 3.02 -2 2 C-3.65 2 -5.3 2 -7 2 C-4.35261084 0.5393715 -3.10551666 0 0 0 Z " fill="#DE9F58" transform="translate(95,39)"/>
<path d="M0 0 C1.32 0 2.64 0 4 0 C3.67 2.97 3.34 5.94 3 9 C2.67 9 2.34 9 2 9 C2 7.35 2 5.7 2 4 C1.34 4 0.68 4 0 4 C0 2.68 0 1.36 0 0 Z " fill="#EA783D" transform="translate(64,84)"/>
<path d="M0 0 C2.31 0 4.62 0 7 0 C7 0.66 7 1.32 7 2 C4.69 2.33 2.38 2.66 0 3 C0 2.01 0 1.02 0 0 Z " fill="#E2984D" transform="translate(88,80)"/>
<path d="M0 0 C1.0625 1.875 1.0625 1.875 2 4 C1.67 4.66 1.34 5.32 1 6 C-1.5625 6.625 -1.5625 6.625 -4 7 C-3.67 5.35 -3.34 3.7 -3 2 C-2.01 2 -1.02 2 0 2 C0 1.34 0 0.68 0 0 Z " fill="#E28950" transform="translate(74,76)"/>
<path d="M0 0 C0.99 0.33 1.98 0.66 3 1 C3 2.65 3 4.3 3 6 C1.68 5.67 0.36 5.34 -1 5 C-0.67 3.35 -0.34 1.7 0 0 Z " fill="#ED7D42" transform="translate(64,66)"/>
<path d="M0 0 C2.64 0.66 5.28 1.32 8 2 C7.67 2.66 7.34 3.32 7 4 C5.02 4 3.04 4 1 4 C0.67 2.68 0.34 1.36 0 0 Z " fill="#E08240" transform="translate(69,112)"/>
<path d="M0 0 C1.32 0.66 2.64 1.32 4 2 C3.34 3.32 2.68 4.64 2 6 C1.01 6 0.02 6 -1 6 C-0.67 4.02 -0.34 2.04 0 0 Z " fill="#DCA15E" transform="translate(94,59)"/>
<path d="M0 0 C2.64 0 5.28 0 8 0 C5.06279492 1.52299523 2.0831351 2.80100302 -1 4 C-0.67 2.68 -0.34 1.36 0 0 Z " fill="#DF9554" transform="translate(83,26)"/>
</svg>
